<svg xmlns="http://www.w3.org/2000/svg" viewBox="0 0 1346.93 468.02"><defs><style>.cls-1{fill:#3265cc;}.cls-2{fill:#73438a;}.cls-3{fill:#d5182f;}.cls-4{isolation:isolate;}</style></defs><title>marea</title><g id="Capa_2" data-name="Capa 2"><g id="Layer_1" data-name="Layer 1"><path class="cls-1" d="M315.8,28.38Q292.94,0,254.46,0,197.7,0,172.25,58.07,152.67,0,94.6,0,44.35,0,18.26,46.33V13.56q0-9-9.13-9T0,13.67V212.76c0,6.06,3,9.1,9.13,9.1s9.13-3,9.13-9.1V124.33L32.47,102A74.2,74.2,0,0,1,61.93,75.43h0a51.55,51.55,0,0,1,37.89-3.27l19.73,5.92L139.29,86a39.16,39.16,0,0,1,19.79,17.5h0A11.45,11.45,0,0,1,160.5,109V212.75q0,9.09,9.14,9.1t9.13-9.1V135.08a37.22,37.22,0,0,1,6.09-20.39h0a102.35,102.35,0,0,1,23-24.81h0a56.54,56.54,0,0,1,34.57-11.8h12.77a73.88,73.88,0,0,1,14.38,1.42h0a64.3,64.3,0,0,1,32.86,17.59h0a26.44,26.44,0,0,1,5.23,7.46h0a134.34,134.34,0,0,1,12.72,57.07v51.12c0,6.16,3.13,9.2,9.44,9.1a9.08,9.08,0,0,0,8.83-9.13V95.91Q338.64,56.76,315.8,28.38Z"/><path class="cls-2" d="M315.8,63q-22.86-28.38-61.34-28.38-56.6,0-82.06,57.75a.14.14,0,0,1-.27,0Q152.51,34.66,94.6,34.66q-50,0-76.08,45.86a.14.14,0,0,1-.26-.06V48.22q0-9-9.13-9T0,48.33V247.41c0,6.06,3,9.1,9.13,9.1s9.13-3,9.13-9.1V154.8a55,55,0,0,1,14.16-38.39l4.7-5.2A73.57,73.57,0,0,1,78.84,88.06h0a71.1,71.1,0,0,1,23.78-.2l5.46.88a88.1,88.1,0,0,1,41.56,18.61h0a14.24,14.24,0,0,1,4.07,5.34l5.64,12.81A13.6,13.6,0,0,1,160.5,131h0V247.4q0,9.09,9.14,9.1t9.13-9.1V157.64a168.44,168.44,0,0,1,1.57-23.44,55.27,55.27,0,0,1,10-24.65h0l0,0c.58-.46,24.93-19.65,27.52-19.65,1.81,0,18-1.88,27.88-3l15.2-.89h5.41a60.86,60.86,0,0,1,39.31,14.4h0l0,0,14.63,29.26,0,.15V247.39c0,6.12,3.09,9.16,9.31,9.1a9.19,9.19,0,0,0,9-9.27V130.56Q338.64,91.41,315.8,63Z"/><path class="cls-3" d="M254.46,74.55q38.49,0,61.34,28.38t22.84,67.53v116.8q0,9.14-9.14,9.13c-6.1,0-9.13-3-9.13-9.1V170.88q0-31.87-17-53.34-17.61-24.06-48.94-24.06-37.85,0-58.72,34.47-17,29.27-17,69.59V287.3q0,9.1-9.13,9.1t-9.14-9.1V170.88q0-31.87-17-53.34Q125.27,93.48,94.6,93.48q-39.81,0-60,28.62Q17,148.77,18.26,195v92.36q0,9.1-9.13,9.1c-6.1,0-9.13-3-9.13-9.1V88.22q0-9.1,9.13-9.1t9.13,9v32.77Q44.35,74.56,94.6,74.55q58.07,0,77.65,58.07Q197.69,74.55,254.46,74.55Z"/><path class="cls-3" d="M615.94,84.89q8.68,0,8.69,8.92V288.1q0,8.92-8.69,8.92t-8.69-8.92V247.33q-29.18,55.42-86.88,55.42-42.81,0-71.36-33.12t-28.54-77.72q0-44.58,28.54-77.72t71.36-33.13q57.71,0,86.88,55.42V93.8C607.25,87.87,610.14,84.89,615.94,84.89ZM520.37,284.28q35.37,0,59-27.83t23.58-64.54q0-36.71-23.58-64.53t-59-27.84q-35.37,0-58.95,27.84t-23.58,64.53q0,36.69,23.58,64.54T520.37,284.28Z"/><path class="cls-3" d="M799.61,86.17q9.32,0,9.31,8.26c0,5.5-2.7,8.68-8.07,9.53Q764.22,109,745,138.25q-18,26-18,65.41v85.11q0,8.88-8.69,8.89t-8.69-8.89V95.06q0-8.88,8.69-8.89T727,95v39a105.82,105.82,0,0,1,30.41-33.31Q778.5,86.18,799.61,86.17Z"/><path class="cls-3" d="M962.2,81.07q42.81,0,71.67,33.3t28.85,78.12q0,9-9.34,9H879.66q3.11,33.89,26.16,58.35t56,24.47q45.46,0,71.62-37c2.08-2.92,4.57-4.39,7.48-4.39q8.71,0,8.72,8.92a8.05,8.05,0,0,1-1.24,4.46q-26.07,46.51-86.26,46.5-42.21,0-71.05-33.12t-28.86-77.72q0-44.58,28.55-77.72T962.2,81.07ZM879.67,183h164.44Q1041,148.88,1018,124.2T961.89,99.55q-33,0-56.06,24.65T879.67,183Z"/><path class="cls-3" d="M1338.24,84.89q8.68,0,8.69,8.92V288.1q0,8.92-8.69,8.92t-8.69-8.92V247.33q-29.17,55.42-86.88,55.42-42.81,0-71.36-33.12t-28.54-77.72q0-44.58,28.54-77.72t71.36-33.13q57.7,0,86.88,55.42V93.8C1329.55,87.87,1332.44,84.89,1338.24,84.89Zm-95.57,199.39q35.37,0,58.95-27.83t23.58-64.54q0-36.71-23.58-64.53t-58.95-27.84q-35.37,0-59,27.84t-23.58,64.53q0,36.69,23.58,64.54T1242.67,284.28Z"/><g class="cls-4"><path class="cls-1" d="M6,378.09a4.11,4.11,0,0,1,3.3,1.47,4.69,4.69,0,0,1,1.25,3.08V462.3a4.61,4.61,0,0,1-1.25,3.15A4.2,4.2,0,0,1,6,466.84a4.43,4.43,0,0,1-3.37-1.39A4.47,4.47,0,0,1,1.3,462.3V382.64a4.54,4.54,0,0,1,1.32-3.08A4.32,4.32,0,0,1,6,378.09Z"/><path class="cls-1" d="M71.27,415.79a4.34,4.34,0,0,1,3.38,1.47A4.72,4.72,0,0,1,76,420.49v41.37a4.52,4.52,0,0,1-4.7,4.69,4.38,4.38,0,0,1-3.22-1.32,4.56,4.56,0,0,1-1.32-3.37v-.59A27.93,27.93,0,0,1,59.17,466a23,23,0,0,1-18.63-.44,25.37,25.37,0,0,1-7.78-5.86,27,27,0,0,1-5.13-8.44,27.41,27.41,0,0,1-1.83-9.9,27.55,27.55,0,0,1,7-18.19,25.4,25.4,0,0,1,7.78-5.87,23,23,0,0,1,18.63-.44,28.18,28.18,0,0,1,7.56,4.69v-1a4.72,4.72,0,0,1,1.32-3.23A4.16,4.16,0,0,1,71.27,415.79ZM50.44,458.48a14.06,14.06,0,0,0,6.24-1.39,14.23,14.23,0,0,0,4.84-3.82,18.38,18.38,0,0,0,3.08-5.5,19.09,19.09,0,0,0,1.1-6.45A18.71,18.71,0,0,0,64.6,435a18.5,18.5,0,0,0-3.08-5.5,14.1,14.1,0,0,0-11.08-5.21,13.7,13.7,0,0,0-6.16,1.39,15.15,15.15,0,0,0-4.84,3.82,18.67,18.67,0,0,0-3.23,5.5A17.63,17.63,0,0,0,35,441.32a18,18,0,0,0,1.17,6.45,18.55,18.55,0,0,0,3.23,5.5,15.15,15.15,0,0,0,4.84,3.82A13.57,13.57,0,0,0,50.44,458.48Z"/><path class="cls-1" d="M160,414.91a18.63,18.63,0,0,1,8.58,1.91A19.76,19.76,0,0,1,175,422a22.45,22.45,0,0,1,4,7.27,26.94,26.94,0,0,1,1.32,8.43v24.21a4.35,4.35,0,0,1-1.46,3.37,4.74,4.74,0,0,1-3.23,1.32,4.4,4.4,0,0,1-3.23-1.32,4.56,4.56,0,0,1-1.32-3.37V437.65a19.13,19.13,0,0,0-.66-5.06,12.49,12.49,0,0,0-2.05-4.26,11.34,11.34,0,0,0-3.45-3,9.64,9.64,0,0,0-4.84-1.18,11.29,11.29,0,0,0-6,1.54,11.83,11.83,0,0,0-4,4.19A20.42,20.42,0,0,0,147.7,436a34.13,34.13,0,0,0-.73,7.12V462a4.52,4.52,0,0,1-4.69,4.7,4.38,4.38,0,0,1-3.23-1.32,4.58,4.58,0,0,1-1.32-3.38V420.49a4.58,4.58,0,0,1,1.32-3.38,4.38,4.38,0,0,1,3.23-1.32,4.47,4.47,0,0,1,3.08,1.18,4.82,4.82,0,0,1,1.61,2.78,22.1,22.1,0,0,1,5.94-3.52A19,19,0,0,1,160,414.91Z"/><path class="cls-1" d="M234.4,416.23a5.06,5.06,0,0,1,4.7,4.7v41.51a4.11,4.11,0,0,1-1.47,3.3A4.88,4.88,0,0,1,234.4,467a4.68,4.68,0,0,1-4.54-4.11,21.08,21.08,0,0,1-5.94,3.74,18.16,18.16,0,0,1-7.12,1.4,19.14,19.14,0,0,1-8.66-1.91,18.75,18.75,0,0,1-6.38-5.13,23,23,0,0,1-3.88-7.34,27.63,27.63,0,0,1-1.32-8.51v-24.2a4.72,4.72,0,0,1,1.32-3.23,4.32,4.32,0,0,1,3.37-1.47,4.18,4.18,0,0,1,3.23,1.47,4.72,4.72,0,0,1,1.32,3.23v24.2a19.13,19.13,0,0,0,.66,5.06,13,13,0,0,0,2,4.33A11,11,0,0,0,212,457.6a9.51,9.51,0,0,0,4.84,1.18,10.91,10.91,0,0,0,6.53-1.84,12,12,0,0,0,4-4.91,26.5,26.5,0,0,0,2-7.19,60.37,60.37,0,0,0,.59-8.51v-15.4a4.72,4.72,0,0,1,1.32-3.23A4.16,4.16,0,0,1,234.4,416.23Z"/><path class="cls-1" d="M280.91,415.06a22.07,22.07,0,0,1,9.9,2.2,25.52,25.52,0,0,1,7.78,5.87,27.55,27.55,0,0,1,7,18.19,4.43,4.43,0,0,1-1.39,3.37,4.64,4.64,0,0,1-3.3,1.32H266.24a17.62,17.62,0,0,0,5.21,8.88,13.4,13.4,0,0,0,9.46,3.59,15.54,15.54,0,0,0,13.35-6.75,5,5,0,0,1,3.81-2.2,4.58,4.58,0,0,1,3.38,1.32,4.4,4.4,0,0,1,1.32,3.23,3.88,3.88,0,0,1-.22,1.32,5,5,0,0,1-.52,1,20.26,20.26,0,0,1-9,8.51,27.69,27.69,0,0,1-12.1,2.78,22.07,22.07,0,0,1-9.9-2.2,25.37,25.37,0,0,1-7.78-5.86,27.47,27.47,0,0,1,0-36.53,25.4,25.4,0,0,1,7.78-5.87A22.07,22.07,0,0,1,280.91,415.06Zm14.67,21.71a18.06,18.06,0,0,0-5.21-8.8,13.26,13.26,0,0,0-9.46-3.67,13.08,13.08,0,0,0-9.32,3.67,19,19,0,0,0-5.35,8.8Z"/><path class="cls-1" d="M357.19,415.94a4.52,4.52,0,0,1,4.7,4.69,30.43,30.43,0,0,1-1.1,3.45q-1.11,3.15-2.86,7.85T354.11,442q-2.06,5.36-4,10.19t-3.3,8.44q-1.39,3.6-1.69,4.47v-.44a4.46,4.46,0,0,1-1.76,2.5,5.12,5.12,0,0,1-2.78.73,4.75,4.75,0,0,1-4.7-2.79q-.3-.87-1.69-4.47t-3.3-8.44q-1.9-4.83-4-10.19t-3.74-10.05c-1.12-3.13-2.08-5.75-2.86-7.85a28.34,28.34,0,0,1-1.17-3.45,4.52,4.52,0,0,1,4.69-4.69,4,4,0,0,1,2.72.95,5.42,5.42,0,0,1,1.54,2.13l12.47,31.83q2.92-7.92,6.16-15.91T352.94,419a5.08,5.08,0,0,1,1.61-2.13A4.1,4.1,0,0,1,357.19,415.94Z"/><path class="cls-1" d="M419.69,415.79a4.32,4.32,0,0,1,3.37,1.47,4.72,4.72,0,0,1,1.32,3.23v41.37a4.52,4.52,0,0,1-4.69,4.69,4.4,4.4,0,0,1-3.23-1.32,4.56,4.56,0,0,1-1.32-3.37v-.59a27.78,27.78,0,0,1-7.56,4.69,23,23,0,0,1-18.63-.44,25.45,25.45,0,0,1-7.77-5.86,27.44,27.44,0,0,1,0-36.53,25.48,25.48,0,0,1,7.77-5.87,23,23,0,0,1,18.63-.44,28,28,0,0,1,7.56,4.69v-1a4.72,4.72,0,0,1,1.32-3.23A4.18,4.18,0,0,1,419.69,415.79Zm-20.83,42.69a14.1,14.1,0,0,0,11.07-5.21,18.16,18.16,0,0,0,3.08-5.5,18.84,18.84,0,0,0,1.1-6.45,18.9,18.9,0,0,0-4.18-11.81,14.1,14.1,0,0,0-11.07-5.21,13.74,13.74,0,0,0-6.17,1.39,15.26,15.26,0,0,0-4.84,3.82,18.65,18.65,0,0,0-3.22,5.5,17.43,17.43,0,0,0-1.18,6.31,17.78,17.78,0,0,0,1.18,6.45,18.52,18.52,0,0,0,3.22,5.5,15.26,15.26,0,0,0,4.84,3.82A13.61,13.61,0,0,0,398.86,458.48Z"/><path class="cls-1" d="M510.2,414.91a22.14,22.14,0,0,1,9.91,2.2,25.64,25.64,0,0,1,7.77,5.87,27.45,27.45,0,0,1,0,36.53,25.48,25.48,0,0,1-7.77,5.87,23.4,23.4,0,0,1-19.81,0,25.48,25.48,0,0,1-7.77-5.87,26.68,26.68,0,0,1-5.14-8.44,27.33,27.33,0,0,1-1.83-9.9,27.54,27.54,0,0,1,7-18.19,25.64,25.64,0,0,1,7.77-5.87A22.07,22.07,0,0,1,510.2,414.91Zm0,43.43a14.07,14.07,0,0,0,6.24-1.4,14.33,14.33,0,0,0,4.84-3.81,18.41,18.41,0,0,0,3.08-5.5,19.19,19.19,0,0,0,1.1-6.46,18.75,18.75,0,0,0-1.1-6.31,17.46,17.46,0,0,0-3.08-5.43,14.78,14.78,0,0,0-4.84-3.74,14.2,14.2,0,0,0-6.24-1.39,13.7,13.7,0,0,0-6.16,1.39,15.78,15.78,0,0,0-4.84,3.74,18.12,18.12,0,0,0-4.4,11.74,18.08,18.08,0,0,0,1.17,6.46,18.8,18.8,0,0,0,3.23,5.5,15.26,15.26,0,0,0,4.84,3.81A13.57,13.57,0,0,0,510.2,458.34Z"/><path class="cls-1" d="M556.27,378.09a4.14,4.14,0,0,1,3.3,1.47,4.67,4.67,0,0,1,1.24,3.08V462.3a4.6,4.6,0,0,1-1.24,3.15,4.23,4.23,0,0,1-3.3,1.39,4.63,4.63,0,0,1-4.7-4.54V382.64a4.54,4.54,0,0,1,1.32-3.08A4.33,4.33,0,0,1,556.27,378.09Z"/><path class="cls-1" d="M621.55,415.79a4.34,4.34,0,0,1,3.37,1.47,4.72,4.72,0,0,1,1.32,3.23v41.37a4.52,4.52,0,0,1-4.69,4.69,4.38,4.38,0,0,1-3.23-1.32,4.56,4.56,0,0,1-1.32-3.37v-.59a27.78,27.78,0,0,1-7.56,4.69,23,23,0,0,1-18.63-.44,25.45,25.45,0,0,1-7.77-5.86,27,27,0,0,1-5.14-8.44,27.41,27.41,0,0,1-1.83-9.9,27.49,27.49,0,0,1,7-18.19,25.48,25.48,0,0,1,7.77-5.87,23,23,0,0,1,18.63-.44,28,28,0,0,1,7.56,4.69v-1a4.72,4.72,0,0,1,1.32-3.23A4.17,4.17,0,0,1,621.55,415.79Zm-20.84,42.69a14.1,14.1,0,0,0,11.08-5.21,18.16,18.16,0,0,0,3.08-5.5,19.09,19.09,0,0,0,1.1-6.45,18.71,18.71,0,0,0-1.1-6.31,18.28,18.28,0,0,0-3.08-5.5,14.1,14.1,0,0,0-11.08-5.21,13.7,13.7,0,0,0-6.16,1.39,15.15,15.15,0,0,0-4.84,3.82,18.89,18.89,0,0,0-3.23,5.5,17.63,17.63,0,0,0-1.17,6.31,18,18,0,0,0,1.17,6.45,18.76,18.76,0,0,0,3.23,5.5,15.15,15.15,0,0,0,4.84,3.82A13.57,13.57,0,0,0,600.71,458.48Z"/></g></g></g></svg>